<svg id="svg" version="1.1" xmlns="http://www.w3.org/2000/svg" xmlns:xlink="http://www.w3.org/1999/xlink" width="400" height="400" viewBox="0, 0, 400,400"><g id="svgg"><path id="path0" d="M27.826 32.115 C 18.966 34.207,10.290 41.560,6.004 50.607 L 3.516 55.859 3.516 173.047 L 3.516 290.234 6.017 295.514 C 9.352 302.555,15.322 308.761,21.817 311.940 L 26.953 314.453 108.789 314.662 L 190.625 314.872 190.625 344.936 L 190.625 375.000 155.078 375.000 L 119.531 375.000 119.531 384.375 L 119.531 393.750 200.000 393.750 L 280.469 393.750 280.469 384.375 L 280.469 375.000 244.922 375.000 L 209.375 375.000 209.375 344.936 L 209.375 314.872 291.211 314.662 L 373.047 314.453 378.183 311.940 C 384.678 308.761,390.648 302.555,393.983 295.514 L 396.484 290.234 396.726 175.781 C 396.904 90.984,396.731 60.215,396.059 57.031 C 393.966 47.133,387.122 38.679,377.518 34.129 L 372.266 31.641 201.563 31.519 C 100.315 31.447,29.625 31.690,27.826 32.115 M370.270 51.541 C 373.894 53.390,376.275 56.245,377.379 60.067 C 377.935 61.988,378.122 98.751,377.965 175.123 L 377.734 287.355 375.308 290.357 C 369.799 297.173,389.491 296.484,200.000 296.484 C 10.509 296.484,30.201 297.173,24.692 290.357 L 22.266 287.355 22.063 174.130 C 21.829 44.026,21.043 56.075,30.078 51.301 C 34.162 49.143,366.029 49.377,370.270 51.541 " stroke="none" fill="#000000" fill-rule="evenodd"></path></g></svg>