<svg id="svg" version="1.1" xmlns="http://www.w3.org/2000/svg" xmlns:xlink="http://www.w3.org/1999/xlink" width="400" height="400" viewBox="0, 0, 400,400"><g id="svgg"><path id="path0" d="M107.987 8.564 C 99.425 11.660,92.936 17.693,88.816 26.388 L 86.328 31.641 86.089 197.266 C 85.909 322.015,86.076 363.951,86.768 367.188 C 88.838 376.867,95.748 385.718,104.630 390.065 L 109.766 392.578 200.000 392.578 L 290.234 392.578 294.729 390.472 C 303.311 386.450,310.492 377.792,312.973 368.476 C 314.569 362.482,314.569 37.518,312.973 31.524 C 310.492 22.208,303.311 13.550,294.729 9.528 L 290.234 7.422 201.172 7.248 C 115.274 7.080,111.963 7.127,107.987 8.564 M288.545 19.715 C 293.368 21.896,297.180 25.367,299.649 29.825 L 301.953 33.984 301.953 200.000 L 301.953 366.016 299.649 370.175 C 297.180 374.633,293.368 378.104,288.545 380.285 C 283.919 382.377,116.081 382.377,111.455 380.285 C 106.632 378.104,102.820 374.633,100.351 370.175 L 98.047 366.016 98.047 200.000 L 98.047 33.984 100.351 29.825 C 103.738 23.710,108.990 19.877,115.525 18.752 C 123.715 17.341,285.285 18.241,288.545 19.715 M195.291 341.956 C 187.823 347.104,191.040 358.203,200.000 358.203 C 203.569 358.203,204.297 357.909,206.314 355.652 C 211.594 349.742,207.764 340.625,200.000 340.625 C 198.472 340.625,196.353 341.224,195.291 341.956 " stroke="none" fill="#000000" fill-rule="evenodd"></path></g></svg>