<svg id="svg" version="1.1" xmlns="http://www.w3.org/2000/svg" xmlns:xlink="http://www.w3.org/1999/xlink" width="400" height="400" viewBox="0, 0, 400,400"><g id="svgg"><path id="path0" d="M85.156 8.258 C 67.183 12.957,52.300 28.983,49.236 46.937 C 47.668 56.124,48.531 353.416,50.138 357.813 C 56.733 375.859,68.958 387.599,85.516 391.790 C 92.540 393.568,307.460 393.568,314.484 391.790 C 328.316 388.289,341.906 376.937,347.264 364.409 C 351.456 354.607,351.172 366.562,351.172 200.000 L 351.172 46.484 349.265 40.692 C 344.164 25.201,330.242 12.199,314.484 8.210 C 307.655 6.481,91.778 6.526,85.156 8.258 M312.500 19.810 C 325.607 24.172,335.270 34.331,338.648 47.298 C 340.462 54.265,340.462 345.735,338.648 352.702 C 335.214 365.884,325.287 376.172,312.109 380.206 C 304.768 382.453,96.222 382.430,88.063 380.181 C 75.241 376.646,64.788 365.892,61.352 352.702 C 59.538 345.735,59.538 54.265,61.352 47.298 C 65.374 31.858,77.896 20.809,93.744 18.717 C 104.581 17.287,307.973 18.303,312.500 19.810 M195.291 341.956 C 187.823 347.104,191.040 358.203,200.000 358.203 C 203.569 358.203,204.297 357.909,206.314 355.652 C 211.594 349.742,207.764 340.625,200.000 340.625 C 198.472 340.625,196.353 341.224,195.291 341.956 " stroke="none" fill="#000000" fill-rule="evenodd"></path></g></svg>